<svg xmlns="http://www.w3.org/2000/svg" viewBox="0 0 465.14 127.19"><defs><style>.cls-1{fill:#fff;}.cls-2{fill:#cc6967;}.cls-3{fill:#a9c24c;}</style></defs><title>zupy-white</title><g id="Camada_2" data-name="Camada 2"><g id="Camada_1-2" data-name="Camada 1"><path class="cls-1" d="M0,3.68A3.53,3.53,0,0,1,1,1,4,4,0,0,1,3.94,0h97.4a4.19,4.19,0,0,1,2.73.92,3.36,3.36,0,0,1,1.13,2.77V20.64q0,.67,0,1.26a4.71,4.71,0,0,1-.46,1.51L44,95.8h57.63a4,4,0,0,1,2.68.92,3.54,3.54,0,0,1,1.09,2.85v20.89a4.45,4.45,0,0,1-1,2.77,3.3,3.3,0,0,1-2.73,1.34H4.19a3.89,3.89,0,0,1-2.81-1.09,4,4,0,0,1-1.13-3V102.41a3.73,3.73,0,0,1,.59-2.18L61.41,28.77H3.94a4.12,4.12,0,0,1-2.89-1,4.08,4.08,0,0,1-1-3.14Z"/><path class="cls-1" d="M255,3.86A4.1,4.1,0,0,1,256,1a3.49,3.49,0,0,1,2.77-1h53.6a36.52,36.52,0,0,1,10.91,1.59,37.19,37.19,0,0,1,9.4,4.4,38.31,38.31,0,0,1,7.72,6.71,43.2,43.2,0,0,1,5.83,8.43,42.66,42.66,0,0,1,3.65,9.52,41.3,41.3,0,0,1-1.47,24.87,40.56,40.56,0,0,1-7.76,12.84,39.51,39.51,0,0,1-12.08,9.1A35.54,35.54,0,0,1,312.92,81H287.51V121q0,3.61-3.86,3.61H258.73a3.93,3.93,0,0,1-2.68-.88,3.44,3.44,0,0,1-1-2.73ZM318.21,40.6a15.14,15.14,0,0,0-.88-5,14,14,0,0,0-2.56-4.49,13.62,13.62,0,0,0-4.07-3.23,11.44,11.44,0,0,0-5.41-1.26H287.51v28h17.78a12,12,0,0,0,5.45-1.22,12.68,12.68,0,0,0,4.07-3.15,13.86,13.86,0,0,0,2.52-4.45A15.62,15.62,0,0,0,318.21,40.6Z"/><path class="cls-1" d="M408.14,46,428.4,2.6a11.18,11.18,0,0,1,.84-1.47,2.53,2.53,0,0,1,.67-.67,1.69,1.69,0,0,1,.71-.25A4.22,4.22,0,0,0,431.5,0h32.3a1.31,1.31,0,0,1,1,.38,1.2,1.2,0,0,1,.38.88A3.24,3.24,0,0,1,464,3.36L424.2,73.74v46.89q0,3.94-3.85,3.94h-25.1a3.27,3.27,0,0,1-2.59-1,4.24,4.24,0,0,1-.92-2.89V73.57L352.06,3.36A3.08,3.08,0,0,1,351,1.26a1.28,1.28,0,0,1,.34-.88,1.17,1.17,0,0,1,.92-.38h32.3a6.21,6.21,0,0,0,.92.21,1.68,1.68,0,0,1,.67.25,2.55,2.55,0,0,1,.67.67q.33.46.92,1.47Z"/><path class="cls-2" d="M156.55,65.76c0,4.68.65,11.79,1.94,15a22.49,22.49,0,0,0,5.13,8,19.38,19.38,0,0,0,7.41,4.5,27.3,27.3,0,0,0,8.78,1.42,24.29,24.29,0,0,0,9-1.66,20.83,20.83,0,0,0,7.41-4.93,23.52,23.52,0,0,0,5-8.11c1.23-3.22,1.85-10.06,1.85-14.24V65a4.09,4.09,0,0,1,1.18-2.94,4.2,4.2,0,0,1,3.17-1.23h27.67a4.51,4.51,0,0,1,3.41,1.28A4.07,4.07,0,0,1,239.74,65v.18c0,11.05-1.63,23.48-4.88,31a47.84,47.84,0,0,1-13.12,18.15,50.23,50.23,0,0,1-19.09,9.85,85.55,85.55,0,0,1-22.79,3A83.6,83.6,0,0,1,157,124.11a50.56,50.56,0,0,1-19.14-10,48.76,48.76,0,0,1-13.12-18.19c-3.25-7.49-4.88-19.8-4.88-30.67V65A4.34,4.34,0,0,1,121,62.14a3.39,3.39,0,0,1,2.69-1.28H152A5,5,0,0,1,155,62a3.61,3.61,0,0,1,1.56,3Z"/><rect class="cls-3" x="187.28" y="23.38" width="30.35" height="22.61" rx="3.27" ry="3.27"/><rect class="cls-3" x="141.19" y="23.38" width="30.35" height="22.61" rx="3.27" ry="3.27"/></g></g></svg>